<?xml version="1.0" encoding="iso-8859-1"?>
<!-- Uploaded to: SVG Repo, www.svgrepo.com, Generator: SVG Repo Mixer Tools -->
<svg height="800px" width="800px" version="1.1" id="Layer_1" xmlns="http://www.w3.org/2000/svg" xmlns:xlink="http://www.w3.org/1999/xlink" 
	 viewBox="0 0 496 496" xml:space="preserve">
<path style="fill:#0C91C4;" d="M365.6,171.959c0,13.6-6.4,24-19.2,24c-13.6,0-28.8-10.4-28.8-24s15.2-24,28.8-24
	C359.2,147.959,365.6,158.359,365.6,171.959z"/>
<path style="fill:#0E81C1;" d="M341.6,148.759c-12,1.6-24.8,12-24.8,23.2s11.2,20.8,22.4,23.2c10.4-1.6,16-12,16-24
	C355.2,160.759,351.2,151.159,341.6,148.759z"/>
<path style="fill:#2A3738;" d="M295.2,328.759h-104c-0.8,0-1.6,0-2.4-0.8l-35.2-17.6c-2.4-0.8-3.2-4-2.4-6.4s4-3.2,6.4-2.4
	l34.4,17.6h98.4v-45.6l-10.4-11.2c-1.6-1.6-1.6-4.8,0-6.4c1.6-1.6,4.8-1.6,6.4,0l12,12c0.8,0.8,1.6,2.4,1.6,3.2v52.8
	C300,326.359,298.4,328.759,295.2,328.759z"/>
<path style="fill:#7B8484;" d="M287.2,291.159c0,18.4-14.4,32.8-32.8,32.8l0,0c-18.4,0-32.8-14.4-32.8-32.8v-32.8
	c0-18.4,14.4-32.8,32.8-32.8l0,0c18.4,0,32.8,14.4,32.8,32.8V291.159z"/>
<path style="fill:#5A6363;" d="M274.4,276.759c0,18.4-14.4,32.8-32.8,32.8l0,0c-18.4,0-32.8-14.4-32.8-32.8v-32.8
	c0-18.4,14.4-32.8,32.8-32.8l0,0c18.4,0,32.8,14.4,32.8,32.8V276.759z"/>
<path style="fill:#414747;" d="M256.8,266.359c0,18.4-14.4,32.8-32.8,32.8l0,0c-18.4,0-32.8-14.4-32.8-32.8v-32.8
	c0-18.4,14.4-32.8,32.8-32.8l0,0c18.4,0,32.8,14.4,32.8,32.8V266.359z"/>
<g>
	<path style="fill:#7B8484;" d="M280,215.959c2.4,4,0.8,9.6-4.8,13.6l-107.2,74.4c-4.8,3.2-11.2,3.2-14.4,0l0,0
		c-2.4-4-0.8-9.6,4.8-13.6l107.2-74.4C270.4,211.959,276.8,211.959,280,215.959L280,215.959z"/>
	<path style="fill:#7B8484;" d="M244.8,246.359c-1.6,4.8-6.4,6.4-12,4.8l-105.6-33.6c-4.8-1.6-8-6.4-6.4-11.2l0,0
		c1.6-4.8,6.4-6.4,12-4.8l105.6,33.6C243.2,237.559,246.4,242.359,244.8,246.359L244.8,246.359z"/>
</g>
<path style="fill:#0E81C1;" d="M263.2,234.359c0,6.4-4.8,11.2-11.2,11.2l-64.8,20c-6.4,0-17.6-26.4-17.6-32.8l9.6,0.8
	c0-6.4,4.8-11.2,11.2-11.2h60.8C257.6,223.159,263.2,227.959,263.2,234.359L263.2,234.359z"/>
<path style="fill:#074577;" d="M179.2,234.359L179.2,234.359l-9.6-0.8c0,6.4,11.2,32.8,17.6,32.8l6.4-1.6v-3.2
	C193.6,249.559,188,239.959,179.2,234.359z"/>
<path style="fill:#3F4F51;" d="M256,227.959c-0.8,6.4-40-1.6-47.2-3.2l-99.2-14.4c-7.2-0.8-12-7.2-11.2-14.4l0,0
	c0.8-6.4,8-11.2,15.2-10.4l133.6,12.8c7.2,0.8,1.6,8.8,0,16L256,227.959z"/>
<path style="fill:#2A3738;" d="M246.4,199.159c7.2,0.8,1.6,8.8,0,16l9.6,12.8c-0.8,6.4-58.4,0.8-65.6,0l-80.8-16.8
	c-7.2-0.8-12-7.2-11.2-14.4l0,0"/>
<path style="fill:#3F4F51;" d="M81.6,384.759c-44.8,0-81.6-36.8-81.6-81.6s36.8-81.6,81.6-81.6s81.6,36.8,81.6,81.6
	C162.4,347.959,126.4,384.759,81.6,384.759z M81.6,245.559c-32,0-58.4,26.4-58.4,58.4s26.4,58.4,58.4,58.4s58.4-26.4,58.4-58.4
	C139.2,271.159,113.6,245.559,81.6,245.559z"/>
<path style="fill:#7A8687;" d="M81.6,364.759c-33.6,0-60.8-27.2-60.8-60.8s27.2-60.8,60.8-60.8s60.8,27.2,60.8,60.8
	S115.2,364.759,81.6,364.759z M81.6,248.759c-30.4,0-54.4,24.8-54.4,54.4c0,30.4,24.8,54.4,54.4,54.4c30.4,0,54.4-24.8,54.4-54.4
	C136,273.559,111.2,248.759,81.6,248.759z"/>
<g>
	<path style="fill:#98A3A3;" d="M82.4,357.559c0,0.8-0.8,0.8-1.6,0.8l0,0c-0.8,0-1.6-0.8-1.6-0.8v-108c0-0.8,0.8-0.8,1.6-0.8l0,0
		c0.8,0,1.6,0.8,1.6,0.8V357.559z"/>
	<path style="fill:#98A3A3;" d="M44,342.359c-0.8,0.8-1.6,0.8-1.6,0l0,0c-0.8-0.8-0.8-1.6,0-1.6l76-76c0.8-0.8,1.6-0.8,1.6,0l0,0
		c0.8,0.8,0.8,1.6,0,1.6L44,342.359z"/>
	<path style="fill:#98A3A3;" d="M27.2,304.759c-0.8,0-0.8-0.8-0.8-1.6l0,0c0-0.8,0.8-0.8,0.8-0.8h108c0.8,0,0.8,0.8,0.8,0.8l0,0
		c0,0.8-0.8,1.6-0.8,1.6H27.2z"/>
	<path style="fill:#98A3A3;" d="M42.4,266.359c-0.8-0.8-0.8-1.6,0-1.6l0,0c0.8-0.8,1.6-0.8,1.6,0l76,76c0.8,0.8,0.8,1.6,0,1.6l0,0
		c-0.8,0.8-1.6,0.8-1.6,0L42.4,266.359z"/>
	<path style="fill:#98A3A3;" d="M60.8,353.559c0,0.8-0.8,0.8-1.6,0.8l0,0c-0.8,0-0.8-0.8-0.8-1.6l43.2-99.2c0-0.8,0.8-0.8,1.6-0.8
		l0,0c0.8,0,0.8,0.8,0.8,1.6L60.8,353.559z"/>
	<path style="fill:#98A3A3;" d="M31.2,324.759c-0.8,0-1.6,0-1.6-0.8l0,0c0-0.8,0-1.6,0.8-1.6l100.8-39.2c0.8,0,1.6,0,1.6,0.8l0,0
		c0,0.8,0,1.6-0.8,1.6L31.2,324.759z"/>
	<path style="fill:#98A3A3;" d="M31.2,283.159c-0.8,0-0.8-0.8-0.8-1.6l0,0c0-0.8,0.8-0.8,1.6-0.8l99.2,43.2c0.8,0,0.8,0.8,0.8,1.6
		l0,0c0,0.8-0.8,0.8-1.6,0.8L31.2,283.159z"/>
	<path style="fill:#98A3A3;" d="M60,253.559c0-0.8,0-1.6,0.8-1.6l0,0c0.8,0,1.6,0,1.6,0.8l39.2,100.8c0,0.8,0,1.6-0.8,1.6l0,0
		c-0.8,0-1.6,0-1.6-0.8L60,253.559z"/>
</g>
<path style="fill:#3F4F51;" d="M422.4,384.759c-40.8,0-73.6-32.8-73.6-73.6s32.8-73.6,73.6-73.6s73.6,32.8,73.6,73.6
	S463.2,384.759,422.4,384.759z M422.4,257.559c-29.6,0-52.8,24-52.8,52.8s24,52.8,52.8,52.8s52.8-24,52.8-52.8
	S451.2,257.559,422.4,257.559z"/>
<path style="fill:#7A8687;" d="M422.4,366.359c-30.4,0-55.2-24.8-55.2-55.2s24.8-55.2,55.2-55.2c30.4,0,55.2,24.8,55.2,55.2
	S452.8,366.359,422.4,366.359z M422.4,260.759c-27.2,0-49.6,22.4-49.6,49.6s22.4,49.6,49.6,49.6s49.6-22.4,49.6-49.6
	S449.6,260.759,422.4,260.759z"/>
<g>
	<path style="fill:#98A3A3;" d="M423.2,359.959c0,0.8-0.8,0.8-0.8,0.8l0,0c-0.8,0-0.8-0.8-0.8-0.8v-98.4c0-0.8,0.8-0.8,0.8-0.8l0,0
		c0.8,0,0.8,0.8,0.8,0.8V359.959z"/>
	<path style="fill:#98A3A3;" d="M388,346.359c-0.8,0.8-0.8,0.8-1.6,0l0,0c-0.8-0.8-0.8-0.8,0-1.6l69.6-69.6c0.8-0.8,0.8-0.8,1.6,0
		l0,0c0.8,0.8,0.8,0.8,0,1.6L388,346.359z"/>
	<path style="fill:#98A3A3;" d="M372.8,311.959c-0.8,0-0.8-0.8-0.8-0.8l0,0c0-0.8,0.8-0.8,0.8-0.8h98.4c0.8,0,0.8,0.8,0.8,0.8l0,0
		c0,0.8-0.8,0.8-0.8,0.8H372.8z"/>
	<path style="fill:#98A3A3;" d="M386.4,276.759c-0.8-0.8-0.8-0.8,0-1.6l0,0c0.8-0.8,0.8-0.8,1.6,0l69.6,69.6c0.8,0.8,0.8,0.8,0,1.6
		l0,0c-0.8,0.8-0.8,0.8-1.6,0L386.4,276.759z"/>
	<path style="fill:#98A3A3;" d="M403.2,355.959c0,0.8-0.8,0.8-1.6,0.8l0,0c-0.8,0-0.8-0.8-0.8-1.6l39.2-90.4c0-0.8,0.8-0.8,1.6-0.8
		l0,0c0.8,0,0.8,0.8,0.8,1.6L403.2,355.959z"/>
	<path style="fill:#98A3A3;" d="M376.8,329.559c-0.8,0-0.8,0-1.6-0.8l0,0c0-0.8,0-0.8,0.8-1.6l91.2-36c0.8,0,0.8,0,1.6,0.8l0,0
		c0,0.8,0,0.8-0.8,1.6L376.8,329.559z"/>
	<path style="fill:#98A3A3;" d="M376.8,291.959c-0.8,0-0.8-0.8-0.8-1.6l0,0c0-0.8,0.8-0.8,1.6-0.8l90.4,39.2c0.8,0,0.8,0.8,0.8,1.6
		l0,0c0,0.8-0.8,0.8-1.6,0.8L376.8,291.959z"/>
	<path style="fill:#98A3A3;" d="M403.2,265.559c0-0.8,0-1.6,0.8-1.6l0,0c0.8,0,0.8,0,1.6,0.8l36,91.2c0,0.8,0,0.8-0.8,1.6l0,0
		c-0.8,0-1.6,0-1.6-0.8L403.2,265.559z"/>
	<path style="fill:#98A3A3;" d="M226.4,303.159c0,6.4-4.8,12-12,12h-140c-6.4,0-12-4.8-12-12l0,0c0-6.4,4.8-12,12-12h140.8
		C221.6,291.959,226.4,296.759,226.4,303.159L226.4,303.159z"/>
</g>
<g>
	<path style="fill:#B1BCBC;" d="M226.4,303.159c0,6.4-4.8,12-12,12l-132-15.2c-6.4,0-20,10.4-20,4l0,0c0-6.4,4.8-12,12-12h140.8
		C221.6,291.959,226.4,296.759,226.4,303.159L226.4,303.159z"/>
	<path style="fill:#B1BCBC;" d="M251.2,301.559c0,16.8-13.6,30.4-30.4,30.4l0,0c-16.8,0-30.4-13.6-30.4-30.4l0,0
		c0-16.8,13.6-30.4,30.4-30.4l0,0C237.6,271.159,251.2,284.759,251.2,301.559L251.2,301.559z"/>
</g>
<path style="fill:#98A3A3;" d="M242.4,279.959L242.4,279.959c12,12,12,31.2,0,42.4l0,0c-12,12-31.2,12-42.4,0l0,0"/>
<path style="fill:#0E81C1;" d="M337.6,219.159c0,22.4-18.4,40.8-40.8,40.8H284c-22.4,0-40.8-18.4-40.8-40.8l0,0
	c0-22.4,13.6-28.8,36-28.8l27.2-11.2C328.8,179.159,337.6,196.759,337.6,219.159L337.6,219.159z"/>
<path style="fill:#0C91C4;" d="M335.2,201.559c-4-13.6-12.8-22.4-28.8-22.4l-27.2,11.2c-22.4,0-36,6.4-36,28.8c0,6.4,1.6,12,4,16.8
	c2.4,0,4.8,0,7.2,0h20C305.6,235.959,331.2,220.759,335.2,201.559z"/>
<g>
	<path style="fill:#B1BCBC;" d="M307.2,176.759c0.8,1.6,0,4-1.6,4.8l-17.6,7.2c-1.6,0.8-4,0-4.8-1.6l0,0c-0.8-1.6,0-4,1.6-4.8
		l17.6-7.2C304,173.559,306.4,174.359,307.2,176.759L307.2,176.759z"/>
	<path style="fill:#B1BCBC;" d="M375.2,227.959c1.6,2.4,0.8,6.4-1.6,8l0,0c-2.4,1.6-6.4,0.8-8-1.6l-37.6-57.6
		c-1.6-2.4-0.8-6.4,1.6-8l0,0c2.4-1.6,6.4-0.8,8,1.6L375.2,227.959z"/>
</g>
<path style="fill:#0E81C1;" d="M429.6,308.759c2.4,4,1.6,8.8-2.4,11.2l0,0c-4,2.4-8.8,1.6-11.2-2.4l-49.6-76.8
	c-2.4-4-1.6-8.8,2.4-11.2l0,0c4-2.4,8.8-1.6,11.2,2.4L429.6,308.759z"/>
<path style="fill:#B1BCBC;" d="M292.8,268.759c0,2.4-1.6,4-4,4h-35.2c-2.4,0-4-1.6-4-4l0,0c0-2.4,1.6-4,4-4H288
	C290.4,263.959,292.8,266.359,292.8,268.759L292.8,268.759z"/>
<path style="fill:#98A3A3;" d="M292.8,276.759c0,2.4-1.6,4-4,4h-35.2c-2.4,0-4-1.6-4-4l0,0c0-2.4,1.6-4,4-4H288
	C290.4,272.759,292.8,274.359,292.8,276.759L292.8,276.759z"/>
<path style="fill:#B1BCBC;" d="M292.8,285.559c0,2.4-1.6,4-4,4h-35.2c-2.4,0-4-1.6-4-4l0,0c0-2.4,1.6-4,4-4H288
	C290.4,281.559,292.8,283.159,292.8,285.559L292.8,285.559z"/>
<path style="fill:#98A3A3;" d="M292.8,294.359c0,2.4-1.6,4-4,4h-35.2c-2.4,0-4-1.6-4-4l0,0c0-2.4,1.6-4,4-4H288
	C290.4,289.559,292.8,291.959,292.8,294.359L292.8,294.359z"/>
<path style="fill:#B1BCBC;" d="M292.8,302.359c0,2.4-1.6,4-4,4h-35.2c-2.4,0-4-1.6-4-4l0,0c0-2.4,1.6-4,4-4H288
	C290.4,298.359,292.8,299.959,292.8,302.359L292.8,302.359z"/>
<circle style="fill:#3F4F51;" cx="324" cy="163.959" r="12.8"/>
<path style="fill:#0C91C4;" d="M187.2,225.559c-2.4,9.6-12.8,15.2-22.4,12.8c-9.6-2.4-94.4-32.8-92-42.4s91.2,4.8,100.8,7.2
	C184,206.359,189.6,215.959,187.2,225.559z"/>
<path style="fill:#0E81C1;" d="M187.2,225.559c-2.4,9.6-12.8,15.2-22.4,12.8c-9.6-2.4-94.4-32.8-92-42.4"/>
<path style="fill:#3F4F51;" d="M255.2,324.759c0,4.8-4,9.6-9.6,9.6l0,0c-4.8,0-9.6-4-9.6-9.6l0,0c0-4.8,4-9.6,9.6-9.6l0,0
	C251.2,315.159,255.2,319.159,255.2,324.759L255.2,324.759z"/>
<g>
	<path style="fill:#CE1963;" d="M172.8,278.359c1.6,1.6,1.6,3.2,0.8,4l0,0c-0.8,0.8-2.4,0.8-4-0.8l-9.6-10.4c-1.6-1.6-1.6-3.2-0.8-4
		l0,0c0.8-0.8,2.4-0.8,4,0.8L172.8,278.359z"/>
	<path style="fill:#CE1963;" d="M177.6,273.559c1.6,1.6,1.6,3.2,0.8,4l0,0c-0.8,0.8-2.4,0.8-4-0.8l-10.4-10.4
		c-1.6-1.6-1.6-3.2-0.8-4l0,0c0.8-0.8,2.4-0.8,4,0.8L177.6,273.559z"/>
	<path style="fill:#CE1963;" d="M182.4,268.759c1.6,1.6,1.6,3.2,0.8,4l0,0c-0.8,0.8-2.4,0.8-4-0.8l-10.4-10.4
		c-1.6-1.6-1.6-3.2-0.8-4l0,0c0.8-0.8,2.4-0.8,4,0.8L182.4,268.759z"/>
	<path style="fill:#CE1963;" d="M187.2,263.959c1.6,1.6,1.6,3.2,0.8,4l0,0c-0.8,0.8-2.4,0.8-4-0.8l-10.4-10.4
		c-1.6-1.6-1.6-3.2-0.8-4l0,0c0.8-0.8,2.4-0.8,4,0.8L187.2,263.959z"/>
	<path style="fill:#CE1963;" d="M191.2,259.959c1.6,1.6,1.6,3.2,0.8,4l0,0c-0.8,0.8-2.4,0.8-4-0.8l-10.4-10.4
		c-1.6-1.6-1.6-3.2-0.8-4l0,0c0.8-0.8,2.4-0.8,4,0.8L191.2,259.959z"/>
</g>
<path style="fill:#0E81C1;" d="M244.8,255.159c0,12-10.4,22.4-22.4,22.4h-7.2c-12.8,0-22.4-10.4-22.4-22.4l0,0
	c0-12,10.4-22.4,22.4-22.4h7.2C234.4,232.759,244.8,243.159,244.8,255.159L244.8,255.159z"/>
<path style="fill:#0C91C4;" d="M244,251.959c-1.6-10.4-11.2-18.4-22.4-18.4h-7.2c-12.8,0-22.4,10.4-22.4,22.4c0,2.4,0.8,4.8,1.6,7.2
	c0.8,0,1.6,0,1.6,0H208C224,263.159,236.8,258.359,244,251.959z"/>
<path d="M173.6,311.959c-2.4,5.6-8.8,7.2-13.6,4.8l-64-28.8c-5.6-2.4-7.2-8.8-4.8-13.6l0,0c2.4-5.6,12.8-16,17.6-13.6l59.2,37.6
	C173.6,300.759,176,307.159,173.6,311.959L173.6,311.959z"/>
<path style="fill:#2A3738;" d="M173.6,311.959c-2.4,5.6-8.8,7.2-13.6,4.8l-65.6-30.4c-5.6-2.4,4-3.2,6.4-8.8l-4.8-4
	c2.4-5.6,8-16,12.8-13.6l59.2,37.6C173.6,300.759,176,307.159,173.6,311.959L173.6,311.959z"/>
<g>
	<polygon style="fill:#3F4F51;" points="326.4,139.159 296.8,123.159 335.2,133.559 333.6,167.159 	"/>
	
		<ellipse transform="matrix(0.2875 -0.9578 0.9578 0.2875 94.6344 373.4209)" style="fill:#3F4F51;" cx="298.302" cy="123.105" rx="11.2" ry="17.6"/>
</g>
</svg>